{"title":"Last Tango in Halifax S02","uid":11581717,"size":3916733034,"categoryP":"video","categoryS":"tv_shows","magnet":"?xt=urn:btih:b149acb67e9caf29c9e50ff0e348147d1d30e48d&amp;dn=Last+Tango+in+Halifax+S02&amp;tr=udp%3A%2F%2Ftracker.openbittorrent.com%3A80&amp;tr=udp%3A%2F%2Fopen.demonii.com%3A1337&amp;tr=udp%3A%2F%2Ftracker.coppersurfer.tk%3A6969&amp;tr=udp%3A%2F%2Fexodus.desync.com%3A6969","seeders":14,"leechers":10,"uploader":"RedBaron58","files":6,"time":1417134939,"description":"Last Tango in Halifax S02 - Drama x264 mp4\n  &lt;a href=&quot;\nhttp://www.imdb.com/title/tt2216156/&quot; rel=&quot;nofollow&quot; target=&quot;_NEW&quot;&gt;\nhttp://www.imdb.com/title/tt2216156/&lt;/a&gt;\n\nTrailer:\n\n\nThank you for your kind comments and thumbs ups on my other torrents, your feedback is welcome.\n\n\nAbout the Series:\nAlan recuperates in hospital from a heart attack, at the end of the previous series. Meanwhile, \nGillian is contacted by John, who claims he's falling in love with her. \nUnsettled, Gillian confesses to Caroline that she had a one night stand with John. Alan and Celia \ndecide to get married as quickly as possible, with minimum fuss, and book an appointment at \nthe register office. \nAfter finding out about Gillian's sexual encounter with John, Alan tells her that both he and his \nlate wife were ashamed of her morals, mentioning an abortion she had at age fifteen.\n\n\nI hope you enjoy.\n\n\nTechnical: (All episodes are encoded to the same settings)\n\nGeneral\nComplete name                            : H:Last Tango in Halifax S02Last Tango in Halifax S02E01 x264 RB58.mp4\nFormat                                   : MPEG-4\nFormat profile                           : Base Media\nCodec ID                                 : isom\nFile size                                : 627 MiB\nDuration                                 : 58mn 19s\nOverall bit rate mode                    : Variable\nOverall bit rate                         : 1 503 Kbps\nWriting application                      : Lavf54.63.104\n\nVideo\nID                                       : 1\nFormat                                   : AVC\nFormat/Info                              : Advanced Video Codec\nFormat profile                           : &lt;a class=&quot;__cf_email__&quot; href=&quot;/cdn-cgi/l/email-protection&quot; data-cfemail=&quot;3078595758707c031e00&quot;&gt;[email&amp;#160;protected]&lt;/a&gt;&lt;script cf-hash='f9e31' type=&quot;text/javascript&quot;&gt;\n/* &lt;![CDATA[ */!function(){try{var t=&quot;currentScript&quot;in document?document.currentScript:function(){for(var t=document.getElementsByTagName(&quot;script&quot;),e=t.length;e--;)if(t[e].getAttribute(&quot;cf-hash&quot;))return t[e]}();if(t&amp;&amp;t.previousSibling){var e,r,n,i,c=t.previousSibling,a=c.getAttribute(&quot;data-cfemail&quot;);if(a){for(e=&quot;&quot;,r=parseInt(a.substr(0,2),16),n=2;a.length-n;n+=2)i=parseInt(a.substr(n,2),16)^r,e+=String.fromCharCode(i);e=document.createTextNode(e),c.parentNode.replaceChild(e,c)}}}catch(u){}}();/* ]]&gt; */&lt;/script&gt;\nFormat settings, CABAC                   : Yes\nFormat settings, ReFrames                : 4 frames\nCodec ID                                 : avc1\nCodec ID/Info                            : Advanced Video Coding\nDuration                                 : 58mn 19s\nBit rate                                 : 1 400 Kbps\nWidth                                    : 832 pixels\nHeight                                   : 468 pixels\nDisplay aspect ratio                     : 16:9\nFrame rate mode                          : Constant\nFrame rate                               : 25.000 fps\nColor space                              : YUV\nChroma subsampling                       : 4:2:0\nBit depth                                : 8 bits\nScan type                                : Progressive\nBits/(Pixel*Frame)                       : 0.144\nStream size                              : 584 MiB (93%)\nWriting library                          : x264 core 123 r2189 35cf912\nEncoding settings                        : cabac=1 / ref=3 / deblock=1:0:0\n\nAudio\nID                                       : 2\nFormat                                   : AAC\nFormat/Info                              : Advanced Audio Codec\nFormat profile                           : LC\nCodec ID                                 : 40\nDuration                                 : 58mn 18s\nBit rate mode                            : Variable\nBit rate                                 : 93.5 Kbps\nMaximum bit rate                         : 128 Kbps\nChannel(s)                               : 2 channels\nChannel positions                        : Front: L R\nSampling rate                            : 48.0 KHz\nCompression mode                         : Lossy\nStream size                              : 39.0 MiB (6%)\nLanguage                                 : English","torrent":{"xt":"urn:btih:b149acb67e9caf29c9e50ff0e348147d1d30e48d","amp;dn":"Last+Tango+in+Halifax+S02","amp;tr":["udp%3A%2F%2Ftracker.openbittorrent.com%3A80","udp%3A%2F%2Fopen.demonii.com%3A1337","udp%3A%2F%2Ftracker.coppersurfer.tk%3A6969","udp%3A%2F%2Fexodus.desync.com%3A6969"],"infoHash":"b149acb67e9caf29c9e50ff0e348147d1d30e48d","infoHashBuffer":{"type":"Buffer","data":[177,73,172,182,126,156,175,41,201,229,15,240,227,72,20,125,29,48,228,141]},"announce":[],"urlList":[]}}